<?xml version="1.0" encoding="UTF-8"?>
<svg id="Layer_1" xmlns="http://www.w3.org/2000/svg" version="1.1" viewBox="0 0 125.9 127.8">
  <!-- Generator: Adobe Illustrator 29.1.0, SVG Export Plug-In . SVG Version: 2.1.0 Build 142)  -->
  <defs>
    <style>
      .st0 {
        fill: #111;
      }

      .st1 {
        fill: #efefef;
      }
    </style>
  </defs>
  <path class="st1" d="M110,56.7l-39.8-39.8c-4-4-10.5-4-14.5,0L15.9,56.7c-4,4-4,10.5,0,14.5l39.8,39.8c4,4,10.5,4,14.5,0l39.8-39.8c4-4,4-10.5,0-14.5ZM82.5,67.9c0,16.3-8.6,23-20.1,23s-19.1-6.2-19.1-22.7v-27.8c0-1.9,1.5-3.5,3.5-3.5s1.8.4,2.5,1c.6.6,1,1.5,1,2.5v28c0,11.9,5.3,16.9,12.4,16.9s12.9-5.2,12.9-16.9v-28c0-1.9,1.6-3.5,3.5-3.5s1.8.4,2.4,1c.6.6,1,1.5,1,2.5,0,0,0,27.5,0,27.5Z"/>
  <path class="st0" d="M82.5,40.4v27.5c0,16.3-8.6,23-20.1,23s-19.1-6.2-19.1-22.7v-27.8c0-1.9,1.5-3.5,3.5-3.5s1.8.4,2.5,1c.6.6,1,1.5,1,2.5v28c0,11.9,5.3,16.9,12.4,16.9s12.9-5.2,12.9-16.9v-28c0-1.9,1.6-3.5,3.5-3.5s1.8.4,2.4,1c.6.6,1,1.5,1,2.5Z"/>
</svg>