<?xml version="1.0" encoding="UTF-8"?>
<svg id="Layer_1" xmlns="http://www.w3.org/2000/svg" version="1.1" viewBox="0 0 287.8 127.8">
  <!-- Generator: Adobe Illustrator 29.1.0, SVG Export Plug-In . SVG Version: 2.1.0 Build 142)  -->
  <defs>
    <style>
      .st0 {
        fill: #121212;
      }

      .st1 {
        fill: #efefef;
      }
    </style>
  </defs>
  <path class="st1" d="M111.6,56.7l-39.8-39.8c-4-4-10.5-4-14.5,0L17.6,56.7c-4,4-4,10.5,0,14.5l39.8,39.8c4,4,10.5,4,14.5,0l39.8-39.8c4-4,4-10.5,0-14.5ZM84.1,67.9c0,16.3-8.6,23-20.1,23s-19.1-6.2-19.1-22.7v-27.8c0-1.9,1.5-3.5,3.5-3.5s1.8.4,2.5,1c.6.6,1,1.5,1,2.5v28c0,11.9,5.3,16.9,12.4,16.9s12.9-5.2,12.9-16.9v-28c0-1.9,1.6-3.5,3.5-3.5s1.8.4,2.4,1c.6.6,1,1.5,1,2.5,0,0,0,27.5,0,27.5Z"/>
  <path class="st0" d="M84.1,40.4v27.5c0,16.3-8.6,23-20.1,23s-19.1-6.2-19.1-22.7v-27.8c0-1.9,1.5-3.5,3.5-3.5s1.8.4,2.5,1c.6.6,1,1.5,1,2.5v28c0,11.9,5.3,16.9,12.4,16.9s12.9-5.2,12.9-16.9v-28c0-1.9,1.6-3.5,3.5-3.5s1.8.4,2.4,1c.6.6,1,1.5,1,2.5Z"/>
  <g>
    <path class="st1" d="M156.2,36h7.5v30c0,4.9-1.6,8.7-4.8,11.4-3.2,2.7-7.4,4-12.7,4s-9.5-1.3-12.6-4.1c-3.1-2.7-4.7-6.5-4.7-11.4v-30h7.4v30c0,3.1.9,5.4,2.6,7,1.7,1.6,4.1,2.4,7.3,2.4s5.6-.8,7.4-2.4,2.7-3.9,2.7-7v-30h0Z"/>
    <path class="st1" d="M188.5,46.8c3.6,0,6.3,1.1,8.2,3.2,1.9,2.1,2.9,5.4,2.9,9.8v20.9h-7.5v-20.8c0-2.5-.5-4.3-1.5-5.3-1-1.1-2.6-1.6-4.8-1.6s-5.1,1.2-6.7,3.6v24.2h-7.5v-33.3h6.8s.4,4.8.4,4.8c2.3-3.7,5.5-5.5,9.7-5.5h0Z"/>
    <path class="st1" d="M215.2,32.8v6.6h-7.4v-6.6h7.4ZM215.2,47.5v33.3h-7.4v-33.3h7.4Z"/>
    <path class="st1" d="M233.5,80.8h-7.5v-27.8h-5.1v-5.5h5.1v-3.9c0-3.7,1-6.5,3-8.5,2-2,4.8-3,8.4-3s2.8.2,4.7.7l-.8,5.8c-1.2-.2-2.2-.3-3-.3-3.2,0-4.9,1.8-4.9,5.4v3.9h6.8v5.5h-6.8v27.7h0Z"/>
    <path class="st1" d="M248.9,95.7c-.9,0-2.3-.2-4-.6l.8-5.8c1.5,0,2.2.1,2.3.1,2.2,0,3.9-1.5,5.2-4.6l1.2-3-12.1-32.9h8.2l6.4,19.9.8,3.3h.2l7.3-23.2h8.2l-13.8,38.3c-1,2.6-2.3,4.7-4,6.2s-3.8,2.2-6.6,2.2h0Z"/>
  </g>
</svg>