<?xml version="1.0" encoding="UTF-8"?>
<svg id="Layer_1" xmlns="http://www.w3.org/2000/svg" version="1.1" viewBox="0 0 125.9 127.81">
  <!-- Generator: Adobe Illustrator 29.1.0, SVG Export Plug-In . SVG Version: 2.1.0 Build 142)  -->
  <defs>
    <style>
      .st0 {
        fill: #121212;
      }

      .st1 {
        fill: #fff;
      }
    </style>
  </defs>
  <path class="st0" d="M109.96,56.67l-39.77-39.77c-4-4-10.47-4-14.47,0L15.95,56.67c-3.99,3.99-3.99,10.47,0,14.46l39.77,39.77c4,4,10.47,4,14.47,0l39.77-39.77c3.99-3.99,3.99-10.47,0-14.46ZM82.53,67.88c0,16.3-8.59,22.99-20.09,22.99-10.87,0-19.06-6.22-19.06-22.68v-27.8c0-1.91,1.55-3.46,3.47-3.46.95,0,1.82.39,2.45,1.01.62.63,1.01,1.5,1.01,2.45v27.96c0,11.89,5.28,16.93,12.37,16.93,7.87,0,12.91-5.2,12.91-16.93v-27.96c0-1.91,1.56-3.46,3.47-3.46.96,0,1.82.39,2.45,1.01.63.63,1.02,1.5,1.02,2.45v27.49Z"/>
  <path class="st1" d="M82.53,40.39v27.49c0,16.3-8.59,22.99-20.09,22.99-10.87,0-19.06-6.22-19.06-22.68v-27.8c0-1.91,1.55-3.46,3.47-3.46.95,0,1.82.39,2.45,1.01.62.63,1.01,1.5,1.01,2.45v27.96c0,11.89,5.28,16.93,12.37,16.93,7.87,0,12.91-5.2,12.91-16.93v-27.96c0-1.91,1.56-3.46,3.47-3.46.96,0,1.82.39,2.45,1.01.63.63,1.02,1.5,1.02,2.45Z"/>
</svg>