<?xml version="1.0" encoding="UTF-8"?>
<svg id="Layer_1" xmlns="http://www.w3.org/2000/svg" version="1.1" viewBox="0 0 287.78 127.81">
  <!-- Generator: Adobe Illustrator 29.1.0, SVG Export Plug-In . SVG Version: 2.1.0 Build 142)  -->
  <defs>
    <style>
      .st0 {
        fill: #121212;
      }

      .st1 {
        fill: #fff;
      }
    </style>
  </defs>
  <path class="st0" d="M111.57,56.67l-39.77-39.77c-4-4-10.47-4-14.47,0L17.56,56.67c-3.99,3.99-3.99,10.47,0,14.46l39.77,39.77c4,4,10.47,4,14.47,0l39.77-39.77c3.99-3.99,3.99-10.47,0-14.46ZM84.14,67.88c0,16.3-8.59,22.99-20.09,22.99-10.87,0-19.06-6.22-19.06-22.68v-27.8c0-1.91,1.55-3.46,3.47-3.46.95,0,1.82.39,2.45,1.01.62.63,1.01,1.5,1.01,2.45v27.96c0,11.89,5.28,16.93,12.37,16.93,7.87,0,12.91-5.2,12.91-16.93v-27.96c0-1.91,1.56-3.46,3.47-3.46.96,0,1.82.39,2.45,1.01.63.63,1.02,1.5,1.02,2.45v27.49Z"/>
  <path class="st1" d="M84.14,40.39v27.49c0,16.3-8.59,22.99-20.09,22.99-10.87,0-19.06-6.22-19.06-22.68v-27.8c0-1.91,1.55-3.46,3.47-3.46.95,0,1.82.39,2.45,1.01.62.63,1.01,1.5,1.01,2.45v27.96c0,11.89,5.28,16.93,12.37,16.93,7.87,0,12.91-5.2,12.91-16.93v-27.96c0-1.91,1.56-3.46,3.47-3.46.96,0,1.82.39,2.45,1.01.63.63,1.02,1.5,1.02,2.45Z"/>
  <g>
    <path class="st0" d="M156.18,36.05h7.52v30.01c0,4.9-1.59,8.69-4.77,11.38-3.18,2.69-7.42,4.03-12.73,4.03s-9.52-1.35-12.65-4.05c-3.12-2.7-4.68-6.49-4.68-11.37v-30.01h7.45v30.01c0,3.1.86,5.45,2.58,7.04,1.72,1.6,4.14,2.39,7.26,2.39s5.57-.8,7.35-2.39c1.78-1.59,2.67-3.94,2.67-7.04v-30.01Z"/>
    <path class="st0" d="M188.48,46.85c3.55,0,6.28,1.07,8.19,3.21,1.9,2.14,2.85,5.4,2.85,9.78v20.92h-7.49v-20.85c0-2.48-.51-4.26-1.52-5.33-1.01-1.07-2.6-1.61-4.77-1.61-2.87,0-5.12,1.21-6.73,3.62v24.17h-7.49v-33.29l6.84.03.44,4.82c2.3-3.65,5.53-5.47,9.67-5.47Z"/>
    <path class="st0" d="M215.25,32.77v6.56h-7.45v-6.56h7.45ZM215.25,47.46v33.29h-7.45v-33.29h7.45Z"/>
    <path class="st0" d="M233.53,80.75h-7.52v-27.75h-5.06v-5.54h5.06v-3.86c0-3.67,1-6.5,2.99-8.49,1.99-1.99,4.8-2.99,8.42-2.99,1.21,0,2.78.22,4.72.65l-.75,5.78c-1.23-.21-2.23-.31-3.01-.31-3.24,0-4.85,1.79-4.85,5.37v3.86h6.77v5.54h-6.77v27.75Z"/>
    <path class="st0" d="M248.91,95.69c-.91,0-2.26-.21-4.03-.62l.82-5.78c1.46.09,2.21.14,2.26.14,2.21,0,3.94-1.53,5.2-4.58l1.23-3.01-12.1-32.88h8.17l6.36,19.93.75,3.32h.17l7.31-23.24h8.17l-13.77,38.32c-1,2.64-2.32,4.71-3.96,6.19-1.64,1.48-3.83,2.22-6.56,2.22Z"/>
  </g>
</svg>